<?xml version="1.0" encoding="UTF-8"?>
<svg xmlns="http://www.w3.org/2000/svg" style="display: none;">
    <symbol id="breakfast" viewBox="0 0 24 24">
        <path d="M3,3H21V7H3V3M3,9H21V13H3V9M3,15H21V19H3V15Z M19,18H5V13H19V18M19,11H5V6H19V11Z"/>
    </symbol>
    
    <symbol id="salad" viewBox="0 0 24 24">
        <path d="M21,9H15V22H13V16H11V22H9V9H3V7H21V9M12,2C13.66,2 15,3.34 15,5C15,6.66 13.66,8 12,8C10.34,8 9,6.66 9,5C9,3.34 10.34,2 12,2Z"/>
    </symbol>
    
    <symbol id="appetizer" viewBox="0 0 24 24">
        <path d="M15,11V5L12,2L9,5V11H3V13H21V11H15M12,4.5L13,5.5V11H11V5.5L12,4.5M15,18V16H9V18H15M15,22V20H9V22H15"/>
    </symbol>
    
    <symbol id="soup" viewBox="0 0 24 24">
        <path d="M20,10C22,13 22,16 22,16C22,16 20,16 18,16C18,16 22,21 18,21C16,21 13,17 12,17C11,17 7,21 6,21C2,21 6,16 6,16C4,16 2,16 2,16C2,16 2,13 4,10H20M14.9,6.5C14.6,6.7 14.3,7 14,7.2C13.9,7.3 13.7,7.4 13.6,7.5L13.3,7.8C13.1,8 13,8.3 13,8.5V9H15V8.4C15,8.3 15.1,8.2 15.2,8.1C15.3,8 15.4,7.9 15.5,7.8C15.6,7.7 15.7,7.6 15.8,7.5L16.1,7.2C16.3,7 16.4,6.7 16.4,6.4C16.4,6.1 16.3,5.8 16.1,5.6C15.9,5.4 15.6,5.3 15.3,5.3C15,5.3 14.7,5.4 14.5,5.6L14,6.1L15.4,7.5C15.3,7.2 15.1,6.9 14.9,6.5M11.5,6.5C11.2,6.7 10.9,7 10.6,7.2C10.5,7.3 10.3,7.4 10.2,7.5C10.1,7.6 9.9,7.7 9.8,7.8L9.5,8.1C9.4,8.2 9.3,8.3 9.3,8.4C9.3,8.5 9.2,8.7 9.2,8.8V9H11.2V8.4C11.2,8.3 11.3,8.2 11.4,8.1L12,7.5L12.3,7.2C12.5,7 12.6,6.7 12.6,6.4C12.6,6.1 12.5,5.8 12.3,5.6C12.1,5.4 11.8,5.3 11.5,5.3C11.2,5.3 10.9,5.4 10.7,5.6L10.2,6.1L11.6,7.5C11.4,7.2 11.3,6.9 11.5,6.5M8.1,6.5C7.8,6.7 7.5,7 7.2,7.2L6.9,7.5C6.8,7.6 6.6,7.7 6.5,7.8C6.4,7.9 6.3,8 6.2,8.1C6.1,8.2 6,8.3 6,8.4V9H8V8.4C8,8.3 8.1,8.2 8.2,8.1L8.8,7.5L9.1,7.2C9.3,7 9.4,6.7 9.4,6.4C9.4,6.1 9.3,5.8 9.1,5.6C8.9,5.4 8.6,5.3 8.3,5.3C8,5.3 7.7,5.4 7.5,5.6L7,6.1L8.4,7.5C8.3,7.2 8.1,6.9 8.1,6.5Z"/>
    </symbol>
    
    <symbol id="hot" viewBox="0 0 24 24">
        <path d="M12,3A9,9 0 0,0 3,12A9,9 0 0,0 12,21A9,9 0 0,0 21,12A9,9 0 0,0 12,3M12,19C8.1,19 5,15.9 5,12C5,8.1 8.1,5 12,5C15.9,5 19,8.1 19,12C19,15.9 15.9,19 12,19M11.5,9.5L9,12L11.5,14.5L14,12L11.5,9.5M14.5,14.5L12,17L14.5,19.5L17,17L14.5,14.5M14.5,4.5L12,7L14.5,9.5L17,7L14.5,4.5M8.5,9.5L6,12L8.5,14.5L11,12L8.5,9.5M8.5,4.5L6,7L8.5,9.5L11,7L8.5,4.5M8.5,14.5L6,17L8.5,19.5L11,17L8.5,14.5"/>
    </symbol>
    
    <symbol id="pizza" viewBox="0 0 24 24">
        <path d="M12,2A10,10 0 0,0 2,12A10,10 0 0,0 12,22A10,10 0 0,0 22,12A10,10 0 0,0 12,2M12,4A8,8 0 0,1 20,12A8,8 0 0,1 12,20A8,8 0 0,1 4,12A8,8 0 0,1 12,4M12,6A6,6 0 0,0 6,12A6,6 0 0,0 12,18A6,6 0 0,0 18,12A6,6 0 0,0 12,6M12,8A4,4 0 0,1 16,12A4,4 0 0,1 12,16A4,4 0 0,1 8,12A4,4 0 0,1 12,8M12,10A2,2 0 0,0 10,12A2,2 0 0,0 12,14A2,2 0 0,0 14,12A2,2 0 0,0 12,10Z"/>
    </symbol>
    
    <symbol id="khachapuri" viewBox="0 0 24 24">
        <path d="M12,2A10,10 0 0,0 2,12A10,10 0 0,0 12,22A10,10 0 0,0 22,12A10,10 0 0,0 12,2M12,4A8,8 0 0,1 20,12A8,8 0 0,1 12,20A8,8 0 0,1 4,12A8,8 0 0,1 12,4M12,6A6,6 0 0,0 6,12A6,6 0 0,0 12,18A6,6 0 0,0 18,12A6,6 0 0,0 12,6M12,8A4,4 0 0,1 16,12A4,4 0 0,1 12,16A4,4 0 0,1 8,12A4,4 0 0,1 12,8M12,10A2,2 0 0,0 10,12A2,2 0 0,0 12,14A2,2 0 0,0 14,12A2,2 0 0,0 12,10Z"/>
    </symbol>
    
    <symbol id="josper" viewBox="0 0 24 24">
        <path d="M8.1,13.34L3.91,9.16C2.35,7.59 2.35,5.06 3.91,3.5L10.93,10.5L8.1,13.34M14.88,11.53L13.41,13L20.29,19.88L18.88,21.29L12,14.41L5.12,21.29L3.71,19.88L13.47,10.12C12.76,8.59 13.26,6.44 14.85,4.85C16.76,2.93 19.5,2.57 20.96,4.03C22.43,5.5 22.07,8.24 20.15,10.15C18.56,11.74 16.41,12.24 14.88,11.53Z"/>
    </symbol>
    
    <symbol id="kids" viewBox="0 0 24 24">
        <path d="M12,2A3,3 0 0,1 15,5V11A3,3 0 0,1 12,14A3,3 0 0,1 9,11V5A3,3 0 0,1 12,2M19,11C19,14.53 16.39,17.44 13,17.93V21H11V17.93C7.61,17.44 5,14.53 5,11H7A5,5 0 0,0 12,16A5,5 0 0,0 17,11H19Z"/>
    </symbol>
    
    <symbol id="dessert" viewBox="0 0 24 24">
        <path d="M12,3A9,9 0 0,0 3,12A9,9 0 0,0 12,21A9,9 0 0,0 21,12A9,9 0 0,0 12,3M12,19C8.14,19 5,15.86 5,12C5,8.14 8.14,5 12,5C15.86,5 19,8.14 19,12C19,15.86 15.86,19 12,19M12,17A5,5 0 0,0 17,12A5,5 0 0,0 12,7A5,5 0 0,0 7,12A5,5 0 0,0 12,17M12,9A3,3 0 0,1 15,12A3,3 0 0,1 12,15A3,3 0 0,1 9,12A3,3 0 0,1 12,9Z"/>
    </symbol>
</svg>
